<svg id="Layer_1" data-name="Layer 1" xmlns="http://www.w3.org/2000/svg" viewBox="0 0 1080 1080"><polygon points="823.5 273.01 686.49 410.02 412.47 410.02 412.47 684.04 275.46 821.04 275.47 273.01 823.5 273.01"/><polygon points="902.86 482.41 765.85 619.42 625.9 619.42 625.9 759.36 488.89 896.37 488.89 482.41 902.86 482.41"/><path d="M540,1080C242.24,1080,0,837.76,0,540S242.24,0,540,0s540,242.24,540,540S837.76,1080,540,1080Zm0-991.83C290.86,88.17,88.17,290.86,88.17,540S290.86,991.83,540,991.83,991.83,789.14,991.83,540,789.14,88.17,540,88.17Z"/></svg>